HIERARCHY
ROOT Hips
{
	OFFSET 0.000000 0.000000 0.000000
	CHANNELS 6 Xposition Yposition Zposition Zrotation Yrotation Xrotation 
	JOINT LHipJoint
	{
		OFFSET 0.000000 0.000000 0.000000
		CHANNELS 3 Zrotation Yrotation Xrotation
		JOINT LeftUpLeg
		{
			OFFSET 1.363060 -1.794630 0.839290
			CHANNELS 3 Zrotation Yrotation Xrotation
			JOINT LeftLeg
			{
				OFFSET 2.448110 -6.726130 0.000000
				CHANNELS 3 Zrotation Yrotation Xrotation
				JOINT LeftFoot
				{
					OFFSET 2.562200 -7.039590 0.000000
					CHANNELS 3 Zrotation Yrotation Xrotation
					JOINT LeftToeBase
					{
						OFFSET 0.157640 -0.433110 2.322550
						CHANNELS 3 Zrotation Yrotation Xrotation
						End Site
						{
							OFFSET 0.000000 0.000000 0.000000
						}
					}
				}
			}
		}
	}
	JOINT RHipJoint
	{
		OFFSET 0.000000 0.000000 0.000000
		CHANNELS 3 Zrotation Yrotation Xrotation
		JOINT RightUpLeg
		{
			OFFSET -1.305520 -1.794630 0.839290
			CHANNELS 3 Zrotation Yrotation Xrotation
			JOINT RightLeg
			{
				OFFSET -2.542530 -6.985550 0.000000
				CHANNELS 3 Zrotation Yrotation Xrotation
				JOINT RightFoot
				{
					OFFSET -2.568260 -7.056230 0.000000
					CHANNELS 3 Zrotation Yrotation Xrotation
					JOINT RightToeBase
					{
						OFFSET -0.164730 -0.452590 2.363150
						CHANNELS 3 Zrotation Yrotation Xrotation
						End Site
						{
							OFFSET 0.000000 0.000000 0.000000
						}
					}
				}
			}
		}
	}
	JOINT LowerBack
	{
		OFFSET 0.000000 0.000000 0.000000
		CHANNELS 3 Zrotation Yrotation Xrotation
		JOINT Spine
		{
			OFFSET 0.028270 2.035590 -0.193380
			CHANNELS 3 Zrotation Yrotation Xrotation
			JOINT Spine1
			{
				OFFSET 0.056720 2.048850 -0.042750
				CHANNELS 3 Zrotation Yrotation Xrotation
				JOINT Neck
				{
					OFFSET 0.000000 0.000000 0.000000
					CHANNELS 3 Zrotation Yrotation Xrotation
					JOINT Neck1
					{
						OFFSET -0.054170 1.746240 0.172020
						CHANNELS 3 Zrotation Yrotation Xrotation
						JOINT Head
						{
							OFFSET 0.104070 1.761360 -0.123970
							CHANNELS 3 Zrotation Yrotation Xrotation
							End Site
							{
								OFFSET 0.000000 0.000000 0.000000
							}
						}
					}
				}
				JOINT LeftShoulder
				{
					OFFSET 0.000000 0.000000 0.000000
					CHANNELS 3 Zrotation Yrotation Xrotation
					JOINT LeftArm
					{
						OFFSET 3.362410 1.200890 -0.311210
						CHANNELS 3 Zrotation Yrotation Xrotation
						JOINT LeftForeArm
						{
							OFFSET 4.983000 -0.000000 -0.000000
							CHANNELS 3 Zrotation Yrotation Xrotation
							JOINT LeftHand
							{
								OFFSET 3.483560 -0.000000 -0.000000
								CHANNELS 3 Zrotation Yrotation Xrotation
								JOINT LeftFingerBase
								{
									OFFSET 0.000000 0.000000 0.000000
									CHANNELS 3 Zrotation Yrotation Xrotation
									JOINT LeftHandIndex1
									{
										OFFSET 0.715260 -0.000000 -0.000000
										CHANNELS 3 Zrotation Yrotation Xrotation
										End Site
										{
											OFFSET 0.000000 0.000000 0.000000
										}
									}
								}
								JOINT LThumb
								{
									OFFSET 0.000000 0.000000 0.000000
									CHANNELS 3 Zrotation Yrotation Xrotation
									End Site
									{
										OFFSET 0.000000 0.000000 0.000000
									}
								}
							}
						}
					}
				}
				JOINT RightShoulder
				{
					OFFSET 0.000000 0.000000 0.000000
					CHANNELS 3 Zrotation Yrotation Xrotation
					JOINT RightArm
					{
						OFFSET -3.136600 1.374050 -0.404650
						CHANNELS 3 Zrotation Yrotation Xrotation
						JOINT RightForeArm
						{
							OFFSET -5.241900 -0.000000 -0.000000
							CHANNELS 3 Zrotation Yrotation Xrotation
							JOINT RightHand
							{
								OFFSET -3.444170 -0.000000 -0.000000
								CHANNELS 3 Zrotation Yrotation Xrotation
								JOINT RightFingerBase
								{
									OFFSET 0.000000 0.000000 0.000000
									CHANNELS 3 Zrotation Yrotation Xrotation
									JOINT RightHandIndex1
									{
										OFFSET -0.622530 -0.000000 -0.000000
										CHANNELS 3 Zrotation Yrotation Xrotation
										End Site
										{
											OFFSET 0.000000 0.000000 0.000000
										}
									}
								}
								JOINT RThumb
								{
									OFFSET 0.000000 0.000000 0.000000
									CHANNELS 3 Zrotation Yrotation Xrotation
									End Site
									{
										OFFSET 0.000000 0.000000 0.000000
									}
								}
							}
						}
					}
				}
			}
		}
	}
}
MOTION
Frames: 9
Frame Time: 0.008333
4.712829 17.462230 29.504916 -5.334792 -49.240597 28.508170 3.304528 -1.401107 -1.079339 -22.925824 -9.688824 -44.779962 2.653745 15.676847 40.560944 -1.532541 13.721943 -27.852889 0.437300 4.243200 11.762000 -4.305363 -0.394071 -0.089261 35.661036 -11.809584 -32.847405 -9.836876 -17.488242 50.383970 0.837311 -45.917458 43.687746 -3.969200 -12.119300 36.155500 -1.521837 1.906293 -15.033845 1.070716 2.122005 -5.862454 1.496963 1.219411 1.690789 -1.507231 -3.496580 -12.377313 7.339557 -5.914135 21.869216 1.387500 -1.945700 17.190800 -8.058801 -8.041224 2.175051 -74.006386 10.066889 -0.464151 13.705774 -20.622633 -3.048277 -2.493574 1.533294 6.595474 -20.139879 21.805078 -6.397600 -7.125000 0.000000 0.000000 -42.208500 46.258800 -1.600100 8.321383 10.807449 2.082230 73.225170 -9.311949 -112.190129 0.419264 -2.212714 -0.303818 1.161404 -1.178136 130.140557 10.919183 11.208390 1.804900 7.125000 0.000000 0.000000 26.149900 -20.500500 17.194600 
4.720197 17.467249 29.506197 -5.430171 -48.971048 28.502948 3.295881 -1.400345 -1.071958 -22.782795 -9.863442 -44.640768 2.653886 15.674888 40.546156 -1.483418 13.563855 -27.812207 0.462700 4.363400 12.101200 -4.326273 -0.414306 -0.084548 35.655838 -11.789696 -32.637289 -9.837574 -17.447781 50.321665 3.022839 -48.446005 39.887072 -4.827500 -13.186800 40.071900 -1.363806 1.762766 -15.106389 1.147556 1.867918 -5.885899 1.582168 1.105208 1.654514 -1.298591 -3.281713 -12.334154 7.079646 -5.633663 21.786087 1.118800 -1.809600 17.036400 -7.999364 -8.064535 2.163779 -74.063947 10.148169 -0.107571 13.552168 -20.474556 -3.015359 -2.541282 1.509318 6.971111 -20.760564 21.460379 -6.532200 -7.125000 0.000000 0.000000 -42.462300 45.951200 -1.222400 8.388378 10.784174 2.098659 72.862853 -9.208429 -111.786522 0.264873 -2.028580 -0.320326 1.170336 -1.227137 130.029929 11.485805 11.330443 1.912300 7.125000 0.000000 0.000000 26.469500 -20.406600 17.524500 
4.736108 17.464366 29.505984 -5.645619 -49.012969 28.457294 3.272898 -1.407185 -1.064962 -22.493579 -10.197274 -44.310621 2.626390 15.652134 40.469996 -1.319337 13.317472 -28.260667 0.579400 4.874100 13.550000 -4.346040 -0.418960 -0.071471 35.617615 -11.434663 -32.274540 -9.826080 -17.437662 50.332748 4.043003 -49.751456 38.200994 -5.157100 -13.558600 41.497100 -1.175876 1.828489 -14.963156 1.175331 1.903067 -5.898994 1.580492 1.127099 1.590848 -1.059764 -3.214531 -12.528640 6.811660 -5.586577 21.748246 0.847000 -1.751200 17.067100 -7.964664 -8.094583 2.163576 -73.960827 10.233283 0.720118 13.517017 -20.470576 -3.028971 -2.603956 1.493987 7.101520 -21.488704 21.380659 -6.778600 -7.125000 0.000000 0.000000 -42.948800 45.831800 -1.088200 8.432140 10.791023 2.099116 72.598297 -9.052249 -111.685201 0.025663 -1.757746 -0.340784 1.197598 -1.266511 129.934513 11.991123 11.660568 2.055200 7.125000 0.000000 0.000000 26.722600 -20.131300 17.928400 
4.749136 17.456891 29.509935 -5.141207 -49.308411 27.749106 3.235342 -1.396976 -1.037765 -22.905112 -10.408464 -43.863858 2.599824 15.621027 40.429202 -1.179695 13.160478 -28.727445 0.647900 5.149000 14.333900 -4.333464 -0.430888 -0.079824 34.938978 -11.239458 -31.873788 -9.854878 -17.429356 50.389871 4.416513 -50.300670 37.639170 -5.255100 -13.665400 41.913400 -1.501233 1.888399 -14.823965 1.136949 2.047379 -5.878814 1.674497 1.198971 1.646850 -1.190859 -3.247005 -12.824268 6.743685 -5.589247 21.745009 0.825500 -1.768400 17.196900 -7.968071 -8.113662 2.161823 -73.873476 10.163516 1.621769 13.377794 -20.332805 -2.991819 -2.632014 1.468794 7.551456 -21.924350 21.010158 -6.834000 -7.125000 0.000000 0.000000 -43.051900 45.526900 -0.693300 8.423740 10.792617 2.106634 72.352279 -8.835406 -111.760121 -0.270565 -1.434302 -0.369225 1.228680 -1.320882 129.957279 12.640469 12.108160 2.251300 7.125000 0.000000 0.000000 27.039000 -19.755100 18.464400 
4.764514 17.451979 29.507372 -4.890498 -49.559477 27.436979 3.225897 -1.395903 -1.029568 -23.158825 -10.436011 -43.731928 2.585399 15.603909 40.399010 -1.059259 12.931237 -28.947497 0.704600 5.365000 14.952500 -4.343531 -0.426404 -0.074734 34.520691 -10.697511 -31.643608 -9.863579 -17.444820 50.459839 4.878820 -50.771865 36.836218 -5.428400 -13.850600 42.642400 -1.684007 1.961943 -14.828008 1.095966 2.187851 -5.873956 1.671208 1.262141 1.698052 -1.231307 -3.299870 -13.046636 6.753679 -5.644262 21.695055 0.840700 -1.791400 17.251000 -7.983588 -8.117234 2.162230 -73.703016 10.061453 2.392994 13.285165 -20.240358 -2.969207 -2.660535 1.440083 8.194168 -22.477774 20.558750 -6.907200 -7.125000 0.000000 0.000000 -43.197600 45.153600 -0.203700 8.409812 10.790842 2.117965 72.214560 -8.881302 -111.841763 -0.156522 -1.587345 -0.378252 1.212363 -1.367601 130.247187 13.010007 11.988244 2.282400 7.125000 0.000000 0.000000 27.271000 -19.867800 18.588000 
4.783735 17.451765 29.499470 -5.077540 -49.749276 27.555477 3.237990 -1.405270 -1.042577 -23.082291 -10.285099 -43.795923 2.578821 15.590957 40.364787 -0.967293 12.697725 -29.011582 0.736600 5.483000 15.291600 -4.417377 -0.421496 -0.046600 34.378888 -9.709558 -31.408144 -9.781042 -17.436134 50.580390 7.126447 -51.933629 32.284491 -6.273200 -14.688000 46.068700 -1.627717 2.048198 -14.815467 1.090000 2.283332 -5.887960 1.689261 1.307291 1.667206 -1.287779 -3.357547 -13.214767 6.790323 -5.696800 21.576012 0.874200 -1.819700 17.229300 -7.991993 -8.136255 2.163930 -73.566488 9.997868 2.918952 13.217082 -20.172405 -2.964767 -2.710463 1.418462 8.995734 -23.331378 20.112858 -7.083900 -7.125000 0.000000 0.000000 -43.556300 44.757000 0.327400 8.406006 10.801137 2.120765 72.133822 -8.842728 -111.810635 -0.149372 -1.606635 -0.390641 1.216487 -1.400995 130.551885 13.288452 12.106122 2.351900 7.125000 0.000000 0.000000 27.416700 -19.774200 18.783300 
4.791638 17.443329 29.492742 -4.978905 -49.854092 27.358006 3.218213 -1.405582 -1.038107 -23.189448 -10.213835 -43.747290 2.594403 15.601992 40.421404 -0.929662 12.612935 -29.047951 0.749200 5.528800 15.423100 -4.357676 -0.408270 -0.059420 34.404819 -9.738105 -31.372188 -9.851968 -17.497604 50.440612 3.551862 -48.987344 38.955505 -5.197500 -13.602800 41.669200 -1.808638 2.016678 -14.840643 1.124533 2.247373 -5.888850 1.935779 1.302147 1.682832 -1.426192 -3.311806 -13.294182 6.742180 -5.567697 21.454920 0.849800 -1.794300 17.135900 -7.970106 -8.150255 2.157537 -73.647054 10.041643 3.410521 13.140386 -20.124964 -2.965029 -2.772057 1.400318 9.712544 -24.264902 19.672377 -7.280300 -7.125000 0.000000 0.000000 -43.960000 44.353500 0.886300 8.433654 10.782749 2.141424 71.882010 -8.900602 -111.669206 -0.170509 -1.568560 -0.405288 1.236670 -1.422972 130.770320 13.511724 12.397665 2.454100 7.125000 0.000000 0.000000 27.505300 -19.528400 19.038300 
4.795695 17.439805 29.496907 -5.079323 -49.835639 27.320600 3.205182 -1.403365 -1.031806 -23.180599 -10.166178 -43.648891 2.614008 15.612822 40.486651 -0.941897 12.652627 -29.050182 0.751600 5.537400 15.448000 -4.329541 -0.406387 -0.058067 34.421246 -9.779215 -31.236733 -9.819545 -17.493422 50.330547 1.818219 -46.982899 41.958076 -4.615000 -12.936600 39.131700 -1.713420 2.020768 -14.962333 1.153494 2.215335 -5.903980 2.022847 1.292471 1.659770 -1.576028 -3.250229 -13.176559 6.729730 -5.426582 21.396564 0.875700 -1.773900 17.019700 -7.963959 -8.146180 2.157384 -73.592579 10.283346 4.449901 13.087917 -20.112201 -2.968964 -2.835441 1.359562 9.711349 -25.009492 19.362229 -7.446700 -7.125000 0.000000 0.000000 -44.301400 44.064800 1.300800 8.455412 10.742651 2.167163 71.603203 -9.345199 -111.556532 0.046599 -1.816460 -0.407035 1.242132 -1.425551 131.055804 13.446698 12.473545 2.459500 7.125000 0.000000 0.000000 27.459000 -19.468700 19.039700 
4.799860 17.439378 29.500004 -5.402909 -49.696806 27.517149 3.204914 -1.402260 -1.029903 -23.000407 -10.111150 -43.637993 2.647894 15.640268 40.585645 -0.901537 12.531323 -29.029409 0.777800 5.631000 15.717400 -4.317198 -0.406006 -0.048090 34.568170 -9.743861 -31.066054 -9.757192 -17.463517 50.169853 1.315231 -46.296630 42.802090 -4.481200 -12.774600 38.530300 -1.457958 2.076941 -15.072915 1.179890 2.224888 -5.932649 2.032033 1.300547 1.595100 -1.672023 -3.264699 -13.120206 6.693398 -5.408722 21.285448 0.870900 -1.792500 16.895200 -7.963160 -8.152140 2.154510 -73.448787 10.405261 5.348482 12.988725 -20.032649 -2.973215 -2.927692 1.324515 9.916700 -26.163550 19.012012 -7.741800 -7.125000 0.000000 0.000000 -44.888700 43.708700 1.839600 8.475139 10.714008 2.194271 71.302523 -9.828782 -111.602964 0.285556 -2.108696 -0.421425 1.248169 -1.461522 131.296713 13.724995 12.565315 2.524600 7.125000 0.000000 0.000000 27.607800 -19.401300 19.222100 
